<?xml version="1.0" encoding="utf-8"?>
<!-- Generator: Adobe Illustrator 19.0.1, SVG Export Plug-In . SVG Version: 6.00 Build 0)  -->
<svg version="1.1" id="Layer_1" xmlns="http://www.w3.org/2000/svg" xmlns:xlink="http://www.w3.org/1999/xlink" x="0px" y="0px"
	 viewBox="0 0 97 97" style="enable-background:new 0 0 97 97;" xml:space="preserve">
<style type="text/css">
	.st0{fill:#29A9E0;}
	.st1{fill:#FFFFFF;}
</style>
<circle class="st0" cx="48.5" cy="48.5" r="48.5"/>
<path class="st1" d="M78,29.9c-1.7,1.2-4,2.2-6.6,2.7c-0.1-0.2-0.2-0.4-0.3-0.6c3.5-1.6,5.8-4.2,5.9-6.7c-1.7,1.3-4,2.4-6.7,2.9
	c-0.5,0.1-1,0.2-1.5,0.2c-1.9-2.3-4.6-3.7-8.2-3.7c0,0-0.1,0-0.1,0c0,0-0.1,0-0.1,0c-6.6,0-11.9,5.3-11.9,11.9c0,1,0.1,1.9,0.3,2.8
	c-3-0.1-6.3-0.7-9.6-1.8c-7.1-2.3-12.7-6.4-15.6-10.9c-0.5,0.8-1,1.6-1.3,2.5c-1.5,4.7,0.7,9.9,5.3,14.2c-2.2-0.5-4.2-1.3-5.9-2.3
	c-0.1,0.9,0,1.8,0.2,2.7c1,4.7,5.3,8.3,11,9.9c-2.5,0.3-4.9,0.3-7.2-0.1c0.3,0.9,0.8,1.8,1.4,2.6c2,2.8,5.2,4.6,8.9,5.4
	c-0.1,0.1-0.3,0.1-0.4,0.2c0.1,0,0.1,0,0.2,0c-3.6,2.9-9,4.9-15.1,5.2c4.6,3.3,12.1,5.1,18.3,5.1c11.4,0,20.3-5.9,26.8-12.6
	c4.6-4.7,7.3-11.2,7.2-17.9c0-1-0.1-1.9-0.2-2.9c-0.1-0.9-0.3-1.9-0.5-2.8C75.8,34.5,77.9,32.2,78,29.9z"/>
</svg>
