<?xml version="1.0" encoding="utf-8"?>
<!-- Generator: Adobe Illustrator 19.0.1, SVG Export Plug-In . SVG Version: 6.00 Build 0)  -->
<svg version="1.1" id="Layer_1" xmlns="http://www.w3.org/2000/svg" xmlns:xlink="http://www.w3.org/1999/xlink" x="0px" y="0px"
	 viewBox="0 0 97 97" style="enable-background:new 0 0 97 97;" xml:space="preserve">
<style type="text/css">
	.st0{fill:#3B5B99;}
	.st1{fill:#FFFFFF;}
</style>
<circle class="st0" cx="48.5" cy="48.5" r="48.5"/>
<g>
	<path class="st1" d="M34.5,36.1h6.1v-3c0-3.5,0.4-6.1,1.1-7.8c0.7-1.7,2.2-3,4.1-4.1c2-1.1,4.6-1.5,7.6-1.5c3,0,6.1,0.4,9.1,1.3
		L61,28.3c-1.7-0.4-3.5-0.7-5-0.7c-1.5,0-2.8,0.4-3.5,1.1c-0.7,0.7-1.1,2.2-1.1,4.3v2.8h8.3v8.7h-8.3v32.8H40.6V44.6h-6.1
		C34.5,44.6,34.5,36.1,34.5,36.1z"/>
</g>
</svg>
