<?xml version="1.0" encoding="utf-8"?>
<!-- Generator: Adobe Illustrator 19.0.1, SVG Export Plug-In . SVG Version: 6.00 Build 0)  -->
<svg version="1.1" id="Layer_1" xmlns="http://www.w3.org/2000/svg" xmlns:xlink="http://www.w3.org/1999/xlink" x="0px" y="0px"
	 viewBox="-1 2 97 97" style="enable-background:new -1 2 97 97;" xml:space="preserve">
<style type="text/css">
	.st0{fill:#333333;stroke:#FFFFFF;stroke-miterlimit:10;}
	.st1{fill:#FFFFFF;}
</style>
<polygon class="st0" points="36.4,25.9 44,9.2 13.5,9.2 21.1,25.9 "/>
<rect x="13.5" y="25.6" class="st0" width="42.2" height="72.7"/>
<polygon class="st0" points="24.1,7.5 13.5,25.6 55.7,25.6 45.2,7.5 "/>
<rect x="40.4" y="27.4" class="st1" width="10.8" height="67.8"/>
<g>
	<rect x="1.8" y="57.2" class="st0" width="14.6" height="41.2"/>
	<polygon class="st0" points="5.4,46.9 1.8,57.2 16.4,57.2 12.7,46.9 	"/>
	<polygon class="st0" points="30.9,98.4 33.1,92.1 24.2,92.1 26.4,98.4 	"/>
	<polygon class="st0" points="36,92.1 21.4,92.1 24.8,47 32.6,47 	"/>
</g>
<rect x="44" y="59.4" class="st0" width="50.5" height="39"/>
<circle class="st0" cx="71.3" cy="61.3" r="19.8"/>
<path class="st1" d="M82.9,53c0.4,1.3,0.6,2.7,0.6,4.2c0,7.9-6.4,14.2-14.2,14.2c-3.9,0-7.5-1.6-10.1-4.2c1.8,5.8,7.2,10,13.6,10
	C80.7,77.3,87,71,87,63.1C87,59.2,85.4,55.6,82.9,53z"/>
<rect x="67.8" y="34.5" class="st0" width="7" height="10.7"/>
<rect x="72.8" y="36" class="st0" width="7" height="3.2"/>
<rect x="10.2" y="59.4" class="st1" width="3.1" height="35.8"/>
<rect x="25.1" y="49.4" transform="matrix(0.9976 6.926739e-02 -6.926739e-02 0.9976 4.8842 -1.628)" class="st1" width="1.6" height="40.5"/>
</svg>
