<?xml version="1.0" encoding="utf-8"?>
<!-- Generator: Adobe Illustrator 19.0.1, SVG Export Plug-In . SVG Version: 6.00 Build 0)  -->
<svg version="1.1" id="Layer_1" xmlns="http://www.w3.org/2000/svg" xmlns:xlink="http://www.w3.org/1999/xlink" x="0px" y="0px"
	 viewBox="0 0 97 97" style="enable-background:new 0 0 97 97;" xml:space="preserve">
<style type="text/css">
	.st0{fill:#DC4A38;}
	.st1{fill:#FFFFFF;}
</style>
<circle class="st0" cx="48.5" cy="48.5" r="48.5"/>
<g>
	<path class="st1" d="M43.3,54.8c-1.8-2.1-2.6-4.4-1.3-7.1c-0.4,0-0.8,0.1-1.2,0.1c-2.9,0.2-5.7-0.4-8-2.2c-2.3-1.7-3.7-4-4-6.8
		c-0.6-5.1,1.6-8.9,5.8-11.7c2.2-1.5,4.7-2.3,7.4-2.6c1.5-0.2,3-0.3,4.5-0.3c4,0,8,0,12,0c0.1,0,0.3,0,0.4,0c0,0,0,0.1,0,0.1
		c-0.1,0.1-0.2,0.1-0.3,0.2c-1.2,0.8-2.5,1.6-3.7,2.3c-0.2,0.1-0.5,0.2-0.8,0.2c-1,0-2,0-3.1,0c-0.1,0-0.3,0-0.4,0c0,0,0,0.1,0,0.1
		c0.1,0.1,0.3,0.2,0.4,0.3c1.8,1.6,3.2,3.4,3.8,5.8c1,4.3,0,7.9-3.3,10.9c-0.9,0.8-2,1.6-2.8,2.6c-1.5,1.6-1.4,3.4,0.3,4.9
		c0.2,0.2,0.4,0.3,0.6,0.5c1.6,1.3,3.2,2.6,4.7,3.9c1.5,1.4,2.6,3.1,3,5.2c0.7,3.4-0.2,6.4-2.4,9.1c-1.9,2.3-4.4,3.7-7.1,4.7
		c-3.1,1.1-6.4,1.3-9.7,1.2c-2.4-0.1-4.8-0.6-7.1-1.6c-1.8-0.8-3.3-2-4.4-3.6c-1.8-2.8-1.8-6.3,0.2-9.2c1.4-2.2,3.5-3.5,5.8-4.5
		c2-0.8,4.1-1.3,6.3-1.6C40.4,55.1,41.8,55,43.3,54.8z M31.3,65.3c0,1.2,0.6,2.8,1.7,4.1c1.3,1.5,2.9,2.3,4.7,2.9
		c2.2,0.7,4.6,0.9,6.9,0.7c1.8-0.1,3.5-0.5,5-1.4c2.2-1.3,3.4-3.2,3.4-5.8c0-1.8-0.7-3.2-1.9-4.5c-1.4-1.5-3.1-2.7-4.8-3.9
		c-0.5-0.4-1-0.5-1.6-0.5c-1.6,0.1-3.2,0.2-4.8,0.4c-1.7,0.2-3.3,0.7-4.8,1.6C32.8,60.1,31.3,62,31.3,65.3z M43,45.9
		c0.5-0.1,1-0.1,1.5-0.2c3.1-0.8,4.4-2.8,4.7-5.4c0.2-1.7,0-3.3-0.4-4.9c-0.6-2.3-1.5-4.5-3.1-6.3c-1.2-1.3-2.6-2.2-4.3-2.3
		c-3-0.3-5.7,1.7-6.4,4.6c-0.4,1.6-0.4,3.2-0.1,4.9c0.4,2.4,1.2,4.6,2.6,6.5C38.9,44.6,40.6,45.8,43,45.9z"/>
	<path class="st1" d="M68.9,45.8c2.3,0,4.5,0,6.8,0c0,1.2,0,2.3,0,3.4c-0.2,0-0.3,0-0.5,0c-2,0-3.9,0-5.9,0c-0.3,0-0.4,0.1-0.4,0.4
		c0,2,0,4,0,6c0,0.3-0.1,0.4-0.4,0.4c-0.9,0-1.7,0-2.6,0c-0.3,0-0.4-0.1-0.4-0.4c0-2,0-4,0-5.9c0-0.4-0.1-0.5-0.5-0.5
		c-1.9,0-3.8,0-5.7,0c-0.2,0-0.3,0-0.5,0c0-1.1,0-2.3,0-3.4c2.2,0,4.4,0,6.6,0c0-0.2,0-0.4,0-0.5c0-1.9,0-3.8,0-5.8
		c0-0.4,0.1-0.5,0.5-0.5c1,0,1.9,0,2.9,0C68.9,41.3,68.9,43.5,68.9,45.8z"/>
</g>
</svg>
