<?xml version="1.0" encoding="utf-8"?>
<!-- Generator: Adobe Illustrator 19.0.1, SVG Export Plug-In . SVG Version: 6.00 Build 0)  -->
<svg version="1.1" id="Layer_1" xmlns="http://www.w3.org/2000/svg" xmlns:xlink="http://www.w3.org/1999/xlink" x="0px" y="0px"
	 viewBox="50 21 200 60" style="enable-background:new 50 21 200 60;" xml:space="preserve">
<style type="text/css">
	.st0{fill:#636363;}
	.st1{fill:#7F7F7F;}
	.st2{fill:#C61414;stroke:#FFFFFF;stroke-miterlimit:10;}
	.st3{fill:#FFFFFF;}
</style>
<g>
	<path class="st0" d="M247.8,49.9c0,4.1-1.1,7.9-3.2,11.3c-2.2,3.5-4.9,6.1-8.3,8c-2,1.1-4.2,1.8-6.4,2.2c-2.2,0.4-4.9,0.5-8,0.5
		h-13.1l8.3-36.2h11.7c3.5,0,6.2,0.3,8.3,0.8c2.1,0.5,3.8,1.3,5.1,2.2c1.8,1.2,3.1,2.8,4.1,4.6C247.3,45.2,247.8,47.4,247.8,49.9z
		 M238,50.8c0-1.7-0.3-3.1-0.9-4.3s-1.6-2.2-2.8-2.9c-0.6-0.3-1.2-0.6-1.8-0.7c-0.6-0.2-1.3-0.3-2.1-0.4c-0.7-0.1-1.6-0.1-2.5-0.1
		s-1.8,0-2.5,0h-0.3l-5.3,22.9h0.8c0.9,0,1.9,0,3,0c1.1,0,1.9,0,2.6-0.1c0.9-0.1,1.6-0.2,2.3-0.4c0.7-0.2,1.4-0.5,2.3-0.9
		c2.3-1.2,4.1-3,5.4-5.4S238,53.6,238,50.8z"/>
</g>
<g>
	<path class="st1" d="M238.8,53.4c0,4.1-1.1,7.9-3.2,11.3c-2.2,3.5-4.9,6.1-8.3,8c-2,1.1-4.2,1.8-6.4,2.2s-4.9,0.5-8,0.5h-13.1
		l8.3-36.2h11.7c3.5,0,6.2,0.3,8.3,0.8c2.1,0.5,3.8,1.3,5.1,2.2c1.8,1.2,3.1,2.8,4.1,4.6C238.3,48.7,238.8,50.9,238.8,53.4z
		 M229,54.3c0-1.7-0.3-3.1-0.9-4.3s-1.6-2.2-2.8-2.9c-0.6-0.3-1.2-0.6-1.8-0.7c-0.6-0.2-1.3-0.3-2.1-0.4c-0.7-0.1-1.6-0.1-2.5-0.1
		s-1.8,0-2.5,0H216l-5.3,22.9h0.8c0.9,0,1.9,0,3,0c1.1,0,1.9,0,2.6-0.1c0.9-0.1,1.6-0.2,2.3-0.4c0.7-0.2,1.4-0.5,2.3-0.9
		c2.3-1.2,4.1-3,5.4-5.4S229,57.1,229,54.3z"/>
</g>
<g>
	<path class="st2" d="M88.8,33c0,2.9-0.9,5.3-2.7,7.3s-4.2,3.5-7.2,4.5l8.4,15.3H76.9l-6.8-13.3h-5.2l-3.1,13.3h-9.3l8.3-36.2h14.1
		c4.4,0,7.8,0.8,10.3,2.2C87.6,27.6,88.8,29.9,88.8,33z M78.7,34.6c0-1.5-0.5-2.5-1.4-3.1c-0.9-0.6-2.3-0.9-4.1-0.9h-4.6l-2.3,9.7
		h4.6c2.5,0,4.4-0.5,5.8-1.5S78.7,36.4,78.7,34.6z"/>
	<path class="st2" d="M106.3,60.8c-4.7,0-8.2-1-10.8-3.1s-3.8-4.9-3.8-8.5c0-2.5,0.4-4.8,1.2-6.8c0.8-2.1,2-3.9,3.6-5.5
		c1.5-1.5,3.4-2.7,5.6-3.6c2.2-0.9,4.7-1.3,7.4-1.3c4.1,0,7.1,0.8,9.2,2.5c2.1,1.6,3.1,4.1,3.1,7.3c0,1.1-0.1,2.2-0.3,3.2
		c-0.2,1.1-0.5,2.1-0.9,3.1h-20.3c0,0.1,0,0.2,0,0.3s0,0.2,0,0.3c0,1.9,0.7,3.4,2,4.4c1.3,1.1,3.4,1.6,6.1,1.6c1.9,0,3.7-0.3,5.4-1
		c1.7-0.6,3.2-1.4,4.5-2.2h1l-1.6,7c-1.7,0.7-3.5,1.3-5.4,1.7C110.4,60.6,108.4,60.8,106.3,60.8z M113,42.9c0-0.3,0.1-0.6,0.1-0.8
		c0-0.2,0-0.5,0-0.8c0-1.3-0.4-2.3-1.2-3c-0.8-0.7-1.9-1-3.4-1c-1.8,0-3.3,0.5-4.5,1.5s-2.2,2.3-2.8,4.1H113z"/>
	<path class="st2" d="M141.2,57.2c-0.6,0.4-1.2,0.8-2,1.3s-1.5,0.9-2.2,1.2c-0.9,0.4-1.8,0.7-2.6,0.9s-1.9,0.3-3.3,0.3
		c-2.3,0-4.1-0.6-5.6-1.9c-1.4-1.3-2.2-2.9-2.2-5c0-2.2,0.5-4,1.5-5.5c1-1.5,2.5-2.7,4.5-3.6c1.9-0.8,4.1-1.5,6.7-1.8
		s5.4-0.6,8.4-0.8c0-0.1,0.1-0.3,0.1-0.5c0.1-0.2,0.1-0.5,0.1-0.7c0-1.1-0.5-2-1.6-2.4c-1.1-0.5-2.7-0.7-4.8-0.7
		c-1.4,0-3,0.2-4.8,0.7c-1.7,0.5-3,0.9-3.9,1.2H129l1.3-6.5c1-0.3,2.6-0.6,4.7-0.9c2.1-0.3,4.3-0.5,6.4-0.5c4.3,0,7.4,0.6,9.4,1.7
		c2,1.1,3,2.9,3,5.2c0,0.3,0,0.7-0.1,1.3c-0.1,0.5-0.1,1-0.2,1.4l-4.3,18.6h-8.7L141.2,57.2z M143.5,47.2c-1.6,0.1-3,0.3-4.4,0.5
		c-1.4,0.2-2.5,0.4-3.5,0.8c-1,0.4-1.8,0.9-2.3,1.5c-0.5,0.6-0.8,1.5-0.8,2.6c0,0.9,0.3,1.6,1,2c0.7,0.4,1.7,0.6,3,0.6
		c0.9,0,1.8-0.2,2.8-0.6c1-0.4,1.9-0.9,2.8-1.5L143.5,47.2z"/>
	<path class="st2" d="M174.8,22.3L166,60.1h-8.8l8.7-37.8H174.8z"/>
</g>
<g>
	<path class="st3" d="M180.6,76.3c-1.6,1.1-3.4,2-5.5,2.6c-2,0.6-4.3,0.9-6.8,0.9c-2.9,0-5.5-0.3-7.8-0.8c-2.3-0.5-4.2-1.2-5.6-1.9
		l1.7-7.9l0.9,0c1.5,1.1,3.1,1.9,5,2.5c1.8,0.6,3.6,0.9,5.4,0.9c2.6,0,4.6-0.5,6.1-1.5s2.2-2.4,2.2-4.2c0-0.8-0.1-1.4-0.4-1.9
		c-0.3-0.5-0.7-0.9-1.4-1.1c-0.7-0.3-1.5-0.5-2.6-0.6c-1-0.1-2.2-0.1-3.5-0.1h-2l1.4-6.4h2.1c3.3,0,5.6-0.4,7-1.1s2-1.8,2-3.3
		c0-1.2-0.6-2-1.7-2.6c-1.1-0.5-2.6-0.8-4.6-0.8c-1.7,0-3.5,0.3-5.3,0.8c-1.8,0.5-3.5,1.2-5,1.9l-0.9,0l1.7-7.8
		c1.4-0.5,3.2-0.9,5.4-1.3c2.1-0.4,4.2-0.6,6.3-0.6c2.1,0,3.9,0.2,5.6,0.5c1.6,0.3,3,0.8,4.2,1.4c1.2,0.7,2.2,1.5,2.9,2.5
		c0.7,1,1,2.3,1,3.8c0,1.5-0.3,2.8-0.8,3.9c-0.5,1.1-1.2,2.1-2.1,2.8c-0.8,0.7-1.8,1.3-2.8,1.8c-1.1,0.5-2.1,0.8-3.1,1l-0.1,0.3
		c1.8,0.3,3.2,1,4.4,2.1c1.2,1.1,1.8,2.6,1.8,4.3c0,2-0.5,3.8-1.4,5.5C183.3,73.8,182.1,75.2,180.6,76.3z"/>
	<path class="st3" d="M229.8,56.9c0,4.1-1.1,7.9-3.2,11.3c-2.2,3.5-4.9,6.1-8.3,8c-2,1.1-4.2,1.8-6.4,2.2s-4.9,0.5-8,0.5h-13.1
		l8.3-36.2h11.7c3.5,0,6.2,0.3,8.3,0.8c2.1,0.5,3.8,1.3,5.1,2.2c1.8,1.2,3.1,2.8,4.1,4.6C229.3,52.2,229.8,54.4,229.8,56.9z
		 M220,57.8c0-1.7-0.3-3.1-0.9-4.3c-0.6-1.2-1.6-2.2-2.8-2.9c-0.6-0.3-1.2-0.6-1.8-0.7c-0.6-0.2-1.3-0.3-2.1-0.4
		c-0.7-0.1-1.6-0.1-2.5-0.1s-1.8,0-2.5,0H207l-5.3,22.9h0.8c0.9,0,1.9,0,3,0c1.1,0,1.9,0,2.6-0.1c0.9-0.1,1.6-0.2,2.3-0.4
		c0.7-0.2,1.4-0.5,2.3-0.9c2.3-1.2,4.1-3,5.4-5.4S220,60.6,220,57.8z"/>
</g>
</svg>
